<svg xmlns="http://www.w3.org/2000/svg" aria-hidden="true" style="position:absolute;width:0;height:0;overflow:hidden">
  <defs>
    <symbol id="icon-minus" viewBox="0 0 32 32">
      <path fill="#02897a" d="M0 16C0 7.168 7.168 0 16 0s16 7.168 16 16-7.168 16-16 16S0 24.832 0 16zm8 1.6h16v-3.2H8v3.2z" style="fill:var(--color1, #02897a)"/>
    </symbol>
    <symbol id="icon-plus" viewBox="0 0 32 32">
      <path fill="#02897a" d="M0 16C0 7.168 7.168 0 16 0s16 7.168 16 16-7.168 16-16 16S0 24.832 0 16zm17.6 1.6H24v-3.2h-6.4V8h-3.2v6.4H8v3.2h6.4V24h3.2v-6.4z" style="fill:var(--color1, #02897a)"/>
    </symbol>
    <symbol id="icon-universities" viewBox="0 0 32 32">
      <path fill="#f4f5f7" d="M16 0c8.837 0 16 7.163 16 16s-7.163 16-16 16S0 24.837 0 16 7.163 0 16 0z" style="fill:var(--color2, #f4f5f7)"/>
      <path fill="#d6b1ff" d="M11.52 8.96H9.6a.64.64 0 0 0-.64.64v12.8a.64.64 0 0 0 .64.64h1.92V8.96z" style="fill:var(--color3, #d6b1ff)"/>
      <path fill="#f03e3d" d="M12.8 23.04h6.4V8.96h-6.4v14.08zm3.2-2.56a.64.64 0 1 1-.002-1.28.64.64 0 0 1 .002 1.28zm0-8.96a.64.64 0 1 1 .002 1.28.64.64 0 0 1-.002-1.28zm0 3.84a.64.64 0 1 1 .002 1.28.64.64 0 0 1-.002-1.28zM22.4 8.96h-1.92v14.08h1.92a.64.64 0 0 0 .64-.64V9.6a.64.64 0 0 0-.64-.64z" style="fill:var(--color4, #f03e3d)"/>
    </symbol>
    <symbol id="icon-accountants" viewBox="0 0 32 32">
      <path fill="#f4f5f7" d="M16 0c8.837 0 16 7.163 16 16s-7.163 16-16 16S0 24.837 0 16 7.163 0 16 0z" style="fill:var(--color2, #f4f5f7)"/>
      <path fill="#d6b1ff" d="M21.76 23.68H16a.64.64 0 0 1-.64-.64v-1.28a.64.64 0 0 1 .64-.64h5.76a.64.64 0 0 1 .64.64v1.28a.64.64 0 0 1-.64.64z" style="fill:var(--color3, #d6b1ff)"/>
      <path fill="#11b5e4" d="M21.76 8.32H10.24a.64.64 0 0 0-.64.64v1.28a.64.64 0 0 0 .64.64h11.52a.64.64 0 0 0 .64-.64V8.96a.64.64 0 0 0-.64-.64zM21.76 12.16H10.24a.64.64 0 0 0-.64.64v6.4a.64.64 0 0 0 .64.64h11.52a.64.64 0 0 0 .64-.64v-6.4a.64.64 0 0 0-.64-.64z" style="fill:var(--color5, #11b5e4)"/>
    </symbol>
    <symbol id="icon-enterpreneur" viewBox="0 0 32 32">
      <path fill="#f4f5f7" d="M16 0c8.837 0 16 7.163 16 16s-7.163 16-16 16S0 24.837 0 16 7.163 0 16 0z" style="fill:var(--color2, #f4f5f7)"/>
      <path fill="#d6b1ff" d="M19.84 14.72h3.84l-1.92-2.56-1.92 2.56zm0 2.56h3.84l-1.92 2.56-1.92-2.56z" style="fill:var(--color3, #d6b1ff)"/>
      <path fill="#02897a" d="M8.96 8.32h3.84v15.36H8.96a.64.64 0 0 1-.64-.64V8.96a.64.64 0 0 1 .64-.64zM14.08 8.32h3.84a.64.64 0 0 1 .64.64v14.08a.64.64 0 0 1-.64.64h-3.84V8.32z" style="fill:var(--color1, #02897a)"/>
    </symbol>
    <symbol id="icon-Microsoft" viewBox="0 0 155 32">
      <path fill="#737373" d="m54.68 18.431-.923 2.53h-.077a17.536 17.536 0 0 0-.898-2.481l-4.95-12.031h-4.847v19.175h3.206V13.791c0-.744 0-1.588-.026-2.629-.026-.521-.077-.918-.103-1.216h.077c.154.744.333 1.29.462 1.637l5.95 13.991h2.257l5.899-14.115c.128-.322.257-.967.385-1.513h.077a175.576 175.576 0 0 0-.154 3.448v12.155h3.411V6.399h-4.668L54.68 18.43zm12.977-6.623h3.334v13.743h-3.334V11.808zm1.693-5.805c-.564 0-1.026.198-1.411.546s-.59.794-.59 1.34c0 .521.205.967.59 1.315s.846.521 1.411.521 1.052-.198 1.411-.521c.385-.347.59-.794.59-1.315s-.205-.967-.59-1.34c-.333-.347-.821-.546-1.411-.546zm13.465 5.681a9.602 9.602 0 0 0-1.872-.198c-1.513 0-2.898.322-4.052.967s-2.077 1.538-2.667 2.654c-.616 1.141-.924 2.456-.924 3.969 0 1.315.308 2.481.897 3.547.59 1.042 1.411 1.885 2.513 2.456 1.052.571 2.283.868 3.668.868 1.591 0 2.95-.322 4.027-.918l.025-.025v-2.977l-.128.099a5.82 5.82 0 0 1-1.616.819c-.59.198-1.129.298-1.59.298-1.334 0-2.385-.372-3.129-1.191-.769-.794-1.154-1.885-1.154-3.25 0-1.414.385-2.53 1.18-3.349s1.847-1.24 3.129-1.24c1.077 0 2.18.347 3.18 1.042l.128.099v-3.15l-.025-.025c-.436-.174-.924-.372-1.591-.496zm11.002-.1c-.82 0-1.59.248-2.257.769-.564.447-.949 1.091-1.283 1.86h-.025v-2.406h-3.334V25.55h3.334v-7.02c0-1.191.257-2.183.821-2.902.564-.744 1.282-1.116 2.154-1.116.308 0 .615.074 1 .124.359.099.616.198.795.322l.129.099v-3.225l-.077-.025c-.231-.149-.692-.223-1.257-.223zm9.08-.074c-2.334 0-4.207.67-5.514 1.985-1.334 1.315-1.975 3.126-1.975 5.408 0 2.133.667 3.87 1.95 5.135 1.282 1.24 3.026 1.885 5.206 1.885 2.283 0 4.104-.67 5.412-2.009 1.334-1.34 1.975-3.126 1.975-5.333 0-2.183-.616-3.919-1.873-5.184-1.205-1.265-2.975-1.885-5.18-1.885zm2.667 10.567c-.615.769-1.59 1.141-2.796 1.141s-2.18-.372-2.872-1.191c-.692-.769-1.026-1.885-1.026-3.299 0-1.464.359-2.58 1.026-3.374.692-.794 1.641-1.191 2.847-1.191 1.18 0 2.103.372 2.77 1.141s1.025 1.885 1.025 3.349c-.051 1.488-.333 2.654-.975 3.423zm11.823-4.564c-1.051-.422-1.718-.744-2.025-1.017-.257-.248-.385-.595-.385-1.042 0-.372.153-.744.538-.992s.821-.372 1.462-.372c.564 0 1.154.099 1.719.248s1.077.372 1.487.67l.129.099v-3.026l-.077-.025a9.462 9.462 0 0 0-1.513-.422 10.647 10.647 0 0 0-1.641-.149c-1.59 0-2.898.372-3.924 1.191-1.026.769-1.513 1.811-1.513 3.026 0 .645.103 1.215.334 1.687s.564.918 1.025 1.29c.462.347 1.129.744 2.052 1.116.769.322 1.359.571 1.719.769s.59.422.769.595c.128.198.205.447.205.769 0 .918-.718 1.364-2.18 1.364-.564 0-1.154-.099-1.847-.322s-1.334-.546-1.873-.918l-.128-.099v3.15l.077.025c.487.223 1.077.372 1.795.546.719.124 1.359.223 1.924.223 1.719 0 3.129-.372 4.129-1.191 1.025-.794 1.564-1.811 1.564-3.126 0-.918-.257-1.736-.821-2.357a10.492 10.492 0 0 0-3.001-1.712zm12.619-6.003c-2.334 0-4.207.67-5.514 1.985s-1.975 3.126-1.975 5.408c0 2.133.667 3.87 1.95 5.135 1.282 1.24 3.026 1.885 5.206 1.885 2.283 0 4.104-.67 5.412-2.009 1.334-1.34 1.975-3.126 1.975-5.333 0-2.183-.616-3.919-1.873-5.184-1.205-1.265-2.975-1.885-5.18-1.885zm2.641 10.567c-.615.769-1.59 1.141-2.796 1.141-1.231 0-2.18-.372-2.872-1.191-.693-.769-1.026-1.885-1.026-3.299 0-1.464.359-2.58 1.026-3.374.692-.794 1.641-1.191 2.847-1.191 1.154 0 2.103.372 2.77 1.141s1.025 1.885 1.025 3.349c0 1.488-.333 2.654-.975 3.423zm22.237-7.615v-2.654h-3.36V7.74l-.103.025-3.257.943v3.101h-5.027v-1.736c0-.794.206-1.414.564-1.811s.898-.595 1.564-.595c.462 0 .949.099 1.488.322l.128.074V5.26l-.077-.025c-.461-.149-1.077-.248-1.872-.248-1 0-1.872.223-2.668.595a4.372 4.372 0 0 0-1.82 1.761c-.436.744-.667 1.588-.667 2.555v1.91h-2.334v2.629h2.334V25.55h3.359V14.462h5.027v7.07c0 2.902 1.411 4.366 4.232 4.366.462 0 .949-.074 1.411-.149.487-.099.846-.223 1.052-.322l.025-.025v-2.654l-.129.099a2.221 2.221 0 0 1-.692.298 2.432 2.432 0 0 1-.667.099c-.666 0-1.128-.149-1.462-.521-.308-.347-.461-.918-.461-1.761v-6.499h3.411z" style="fill:var(--color6, #737373)"/>
      <path fill="#f25022" d="M0 0h15.722v15.206H0V0z" style="fill:var(--color7, #f25022)"/>
      <path fill="#7fba00" d="M17.363 0h15.722v15.206H17.363V0z" style="fill:var(--color8, #7fba00)"/>
      <path fill="#00a4ef" d="M0 16.794h15.722V32H0V16.794z" style="fill:var(--color9, #00a4ef)"/>
      <path fill="#ffb900" d="M17.363 16.794h15.722V32H17.363V16.794z" style="fill:var(--color10, #ffb900)"/>
    </symbol>
    <symbol id="icon-FedEx" viewBox="0 0 107 32">
      <path fill="#f60" d="m79.321 31.042 8.896-9.852-8.896-9.854h9.386l4.406 4.786 4.242-4.786h9.058l-8.853 9.813 8.975 9.893H97.11l-4.366-4.826-4.325 4.826H79.32z" style="fill:var(--color11, #f60)"/>
      <path fill="#f60" d="M79.321 6.919H69.246v4.417h10.075v6.657H69.246v6.111h10.075v6.938h-17.48V0h17.48v6.919z" style="fill:var(--color11, #f60)"/>
      <path fill="#652c8f" d="M54.468 0v12.704h-.081c-1.633-1.85-3.672-2.492-6.039-2.492-4.848 0-8.499 3.248-9.781 7.543-1.462-4.732-5.232-7.632-10.822-7.632-4.54 0-8.125 2.009-9.996 5.282v-4.068H8.365V6.92h10.241V0H.001v31.043h8.365V17.994h8.338a12.185 12.185 0 0 0-.381 3.068c0 6.475 5.018 11.019 11.423 11.019 5.386 0 8.935-2.492 10.812-7.036H31.39c-.97 1.365-1.705 1.77-3.644 1.77-2.248 0-4.186-1.933-4.186-4.225h14.597c.633 5.143 4.698 9.579 10.275 9.579a7.175 7.175 0 0 0 5.956-3.136h.081v2.01h7.374V.001h-7.374zM23.791 18.086c.465-1.972 2.016-3.26 3.953-3.26 2.132 0 3.604 1.249 3.992 3.26h-7.945zm26.202 8.23c-2.718 0-4.407-2.496-4.407-5.103 0-2.786 1.469-5.466 4.407-5.466 3.046 0 4.26 2.679 4.26 5.466 0 2.642-1.286 5.103-4.26 5.103z" style="fill:var(--color12, #652c8f)"/>
    </symbol>
    <symbol id="icon-Google" viewBox="0 0 93 32">
      <path fill="#ea4335" d="M39.764 16.41c0 4.442-3.432 7.715-7.644 7.715s-7.644-3.273-7.644-7.715c0-4.473 3.432-7.715 7.644-7.715s7.644 3.242 7.644 7.715zm-3.346 0c0-2.776-1.989-4.675-4.298-4.675s-4.298 1.899-4.298 4.675c0 2.748 1.989 4.675 4.298 4.675s4.298-1.93 4.298-4.675z" style="fill:var(--color13, #ea4335)"/>
      <path fill="#fbbc05" d="M56.253 16.41c0 4.442-3.432 7.715-7.644 7.715s-7.644-3.273-7.644-7.715c0-4.47 3.432-7.715 7.644-7.715s7.644 3.242 7.644 7.715zm-3.346 0c0-2.776-1.989-4.675-4.298-4.675s-4.298 1.899-4.298 4.675c0 2.748 1.989 4.675 4.298 4.675s4.298-1.93 4.298-4.675z" style="fill:var(--color14, #fbbc05)"/>
      <path fill="#4285f4" d="M72.055 9.162v13.85c0 5.697-3.318 8.024-7.242 8.024-3.693 0-5.915-2.501-6.754-4.546l2.913-1.228c.519 1.256 1.79 2.737 3.837 2.737 2.511 0 4.067-1.569 4.067-4.522v-1.11h-.116c-.749.936-2.192 1.753-4.013 1.753-3.809 0-7.3-3.36-7.3-7.683 0-4.355 3.49-7.743 7.3-7.743 1.818 0 3.26.817 4.013 1.725h.116V9.163h3.178v-.004zm-2.94 7.276c0-2.717-1.79-4.703-4.068-4.703-2.308 0-4.242 1.986-4.242 4.703 0 2.689 1.934 4.647 4.242 4.647 2.278 0 4.068-1.958 4.068-4.647z" style="fill:var(--color15, #4285f4)"/>
      <path fill="#34a853" d="M77.294 1.043v22.609h-3.263V1.043h3.263z" style="fill:var(--color16, #34a853)"/>
      <path fill="#ea4335" d="m90.012 18.95 2.597 1.753c-.838 1.256-2.858 3.419-6.348 3.419-4.328 0-7.561-3.388-7.561-7.715 0-4.588 3.26-7.715 7.187-7.715 3.954 0 5.888 3.186 6.52 4.908l.347.876-10.186 4.271c.78 1.548 1.992 2.337 3.693 2.337 1.704 0 2.886-.849 3.751-2.136zm-7.994-2.776 6.809-2.863c-.374-.964-1.501-1.635-2.828-1.635-1.7 0-4.067 1.52-3.981 4.497z" style="fill:var(--color13, #ea4335)"/>
      <path fill="#4285f4" d="M12.123 14.403V11.13h10.893c.107.57.161 1.245.161 1.976 0 2.456-.663 5.492-2.8 7.656-2.078 2.191-4.734 3.36-8.252 3.36-6.52 0-12.003-5.377-12.003-11.979S5.605.164 12.125.164c3.607 0 6.177 1.433 8.107 3.301l-2.281 2.31c-1.384-1.315-3.26-2.337-5.83-2.337-4.761 0-8.485 3.885-8.485 8.706s3.724 8.706 8.485 8.706c3.088 0 4.847-1.256 5.974-2.397.914-.925 1.515-2.247 1.752-4.052l-7.726.003z" style="fill:var(--color15, #4285f4)"/>
    </symbol>
    <symbol id="icon-Airbnb" viewBox="0 0 102 32">
      <path fill="#ff385c" d="M29.171 22.679c-.16-.39-.309-.8-.469-1.15l-.738-1.67-.03-.03c-2.195-4.8-4.539-9.68-7.023-14.48l-.1-.2c-.249-.47-.499-.99-.758-1.47-.319-.57-.629-1.18-1.137-1.76A5.272 5.272 0 0 0 12.563.487a5.285 5.285 0 0 0-1.827 1.432c-.469.58-.818 1.19-1.137 1.76-.249.52-.499 1.03-.758 1.5l-.1.2c-2.444 4.8-4.829 9.68-7.023 14.48l-.06.06c-.219.52-.479 1.06-.728 1.64-.16.35-.319.73-.479 1.15a6.808 6.808 0 0 0 3.736 8.776 6.776 6.776 0 0 0 3.448.455 8.341 8.341 0 0 0 3.172-1.1c1.297-.73 2.544-1.79 3.941-3.32 1.397 1.53 2.674 2.59 3.941 3.33A8.337 8.337 0 0 0 22.7 32c1.635.007 3.218-.58 4.456-1.651s2.047-2.556 2.278-4.179a5.957 5.957 0 0 0-.259-3.5v.01zm-14.326 1.66c-1.716-2.2-2.833-4.22-3.212-5.95a5.216 5.216 0 0 1-.1-1.96c.07-.51.259-.96.519-1.34.599-.87 1.646-1.41 2.793-1.41a3.3 3.3 0 0 1 2.794 1.4c.259.4.449.84.509 1.35.1.58.06 1.25-.1 1.96-.379 1.7-1.497 3.74-3.202 5.95zm12.71 1.48a4.76 4.76 0 0 1-2.893 3.75c-.758.32-1.596.41-2.414.32a6.236 6.236 0 0 1-2.414-.84 15.638 15.638 0 0 1-3.622-3.1c2.095-2.6 3.362-4.97 3.841-7.08.229-1 .259-1.9.16-2.73a5.54 5.54 0 0 0-.858-2.2 5.342 5.342 0 0 0-4.479-2.28c-1.846 0-3.492.86-4.489 2.27a5.194 5.194 0 0 0-.848 2.21c-.13.84-.1 1.77.16 2.73.479 2.11 1.776 4.51 3.841 7.1a14.304 14.304 0 0 1-3.621 3.12c-.828.48-1.616.73-2.414.83-1.241.159-2.495-.179-3.489-.941s-1.647-1.887-1.819-3.129c-.1-.8-.03-1.6.289-2.5.1-.32.249-.64.409-1.02.219-.52.479-1.06.728-1.6l.04-.07a326.77 326.77 0 0 1 6.954-14.41l.1-.2c.249-.48.499-.99.758-1.47.259-.51.539-1 .898-1.4a3.307 3.307 0 0 1 5.078 0c.349.4.638.89.898 1.4.249.48.499 1 .758 1.47l.1.2c2.434 4.77 4.789 9.64 6.984 14.41l.03.03c.259.52.479 1.1.728 1.6.16.39.319.7.419 1.03.19.9.289 1.7.19 2.5zm13.887-1.7a5 5 0 0 1-3.941-1.83 6.56 6.56 0 0 1-1.596-4.48 6.974 6.974 0 0 1 1.656-4.58c.502-.589 1.126-1.061 1.829-1.383s1.468-.484 2.241-.477c.727-.02 1.448.146 2.093.482s1.196.831 1.598 1.438l.1-1.57h2.913v12.08h-2.923l-.1-1.76a4.507 4.507 0 0 1-3.871 2.08zm.758-2.88c.579 0 1.087-.16 1.566-.45a3.76 3.76 0 0 0 1.078-1.25c.249-.51.379-1.12.379-1.8a3.426 3.426 0 0 0-1.467-3.04 2.934 2.934 0 0 0-3.112 0c-.439.32-.798.74-1.077 1.25a4.009 4.009 0 0 0-.379 1.8 3.426 3.426 0 0 0 1.467 3.04c.469.29.978.45 1.546.45zm11.124-12.78c0 .35-.06.67-.22.93-.16.25-.379.48-.668.64s-.599.22-.918.22-.639-.06-.928-.22a1.83 1.83 0 0 1-.668-.64 1.838 1.838 0 0 1-.22-.93c0-.36.07-.68.22-.93.16-.3.389-.48.668-.64.289-.16.599-.23.928-.23a1.829 1.829 0 0 1 1.596.86c.145.292.217.614.21.94zm-3.392 15.3v-12.06h3.172v12.08h-3.182l.01-.02zm11.653-8.9v.04c-.15-.07-.349-.1-.499-.13-.2-.04-.359-.04-.549-.04-.888 0-1.556.26-1.995.8-.479.55-.698 1.32-.698 2.31v5.93h-3.182v-12.08h2.923l.1 1.83c.319-.64.698-1.12 1.237-1.48a3.09 3.09 0 0 1 1.806-.5c.23 0 .449.02.639.06.1.03.16.03.219.06v3.2zm1.277 8.9V6.739h3.173v6.5c.449-.58.957-1.03 1.596-1.38a4.995 4.995 0 0 1 6.066 1.31 6.557 6.557 0 0 1 1.596 4.49 6.969 6.969 0 0 1-1.656 4.58 5.269 5.269 0 0 1-4.07 1.86c-.727.02-1.448-.146-2.093-.482s-1.196-.831-1.598-1.438l-.1 1.57-2.913.03v-.02zm6.135-2.52c.569 0 1.078-.16 1.556-.45a3.76 3.76 0 0 0 1.078-1.25c.259-.51.379-1.12.379-1.8 0-.67-.12-1.28-.379-1.79a3.738 3.738 0 0 0-1.078-1.25 2.934 2.934 0 0 0-3.112 0c-.449.32-.799.74-1.088 1.25a4.009 4.009 0 0 0-.379 1.8 3.426 3.426 0 0 0 1.467 3.04c.468.29.977.45 1.556.45zm7.493 2.53v-12.08h2.923l.1 1.57a3.951 3.951 0 0 1 3.532-1.89c.804-.014 1.594.21 2.272.644s1.213 1.059 1.539 1.796c.349.76.539 1.7.539 2.75v7.24h-3.183v-6.82c0-.84-.189-1.5-.568-1.99-.38-.48-.898-.74-1.556-.74-.479 0-.898.1-1.267.32a2.5 2.5 0 0 0-.858.93 2.7 2.7 0 0 0-.319 1.35v6.92h-3.153zm12.49 0V6.729h3.182v6.5a4.664 4.664 0 0 1 3.722-1.89 5.003 5.003 0 0 1 3.941 1.83 6.578 6.578 0 0 1 1.586 4.48 6.957 6.957 0 0 1-1.656 4.58 5.269 5.269 0 0 1-4.07 1.86c-.727.02-1.448-.146-2.093-.482s-1.196-.831-1.598-1.438l-.09 1.57-2.923.03zm6.166-2.53c.579 0 1.087-.16 1.556-.45.449-.32.798-.74 1.087-1.25.25-.51.379-1.12.379-1.8a3.426 3.426 0 0 0-1.466-3.04 2.934 2.934 0 0 0-3.112 0c-.439.32-.798.74-1.077 1.25a3.652 3.652 0 0 0-.38 1.8 3.416 3.416 0 0 0 1.467 3.04c.469.29.948.45 1.546.45z" style="fill:var(--color17, #ff385c)"/>
    </symbol>
    <symbol id="icon-point-blue" viewBox="0 0 33 32">
      <path fill="#4d8dff" d="M12.667 1.333h6.726c6.259 0 11.333 5.074 11.333 11.333v6.667c0 6.259-5.074 11.333-11.333 11.333h-6.726c-6.259 0-11.333-5.074-11.333-11.333v-6.667c0-6.259 5.074-11.333 11.333-11.333z" style="fill:var(--color18, #4d8dff)"/>
      <path fill="none" stroke="#fff" stroke-width="2.667" d="M12.667 1.333h6.726c6.259 0 11.333 5.074 11.333 11.333v6.667c0 6.259-5.074 11.333-11.333 11.333h-6.726c-6.259 0-11.333-5.074-11.333-11.333v-6.667c0-6.259 5.074-11.333 11.333-11.333z" style="stroke:var(--color19, #fff)"/>
      <path fill="none" stroke="#4d8dff" stroke-width="2.667" d="M12.667 1.333h6.726c6.259 0 11.333 5.074 11.333 11.333v6.667c0 6.259-5.074 11.333-11.333 11.333h-6.726c-6.259 0-11.333-5.074-11.333-11.333v-6.667c0-6.259 5.074-11.333 11.333-11.333z" style="stroke:var(--color18, #4d8dff)"/>
      <path fill="#fff" d="M23.601 11.19a.722.722 0 0 0-1.036 0l-8.779 8.949-3.375-3.44c-.286-.292-.75-.292-1.036 0s-.286.765 0 1.056l3.893 3.968a.723.723 0 0 0 1.036 0l9.297-9.478a.757.757 0 0 0 0-1.056z" style="fill:var(--color19, #fff)"/>
    </symbol>
    <symbol id="icon-point-red" viewBox="0 0 33 32">
      <path fill="#f03e3d" d="M12.667 1.333h6.726c6.259 0 11.333 5.074 11.333 11.333v6.667c0 6.259-5.074 11.333-11.333 11.333h-6.726c-6.259 0-11.333-5.074-11.333-11.333v-6.667c0-6.259 5.074-11.333 11.333-11.333z" style="fill:var(--color4, #f03e3d)"/>
      <path fill="none" stroke="#fff" stroke-width="2.667" d="M12.667 1.333h6.726c6.259 0 11.333 5.074 11.333 11.333v6.667c0 6.259-5.074 11.333-11.333 11.333h-6.726c-6.259 0-11.333-5.074-11.333-11.333v-6.667c0-6.259 5.074-11.333 11.333-11.333z" style="stroke:var(--color19, #fff)"/>
      <path fill="none" stroke="#f03e3d" stroke-width="2.667" d="M12.667 1.333h6.726c6.259 0 11.333 5.074 11.333 11.333v6.667c0 6.259-5.074 11.333-11.333 11.333h-6.726c-6.259 0-11.333-5.074-11.333-11.333v-6.667c0-6.259 5.074-11.333 11.333-11.333z" style="stroke:var(--color4, #f03e3d)"/>
      <path fill="#fff" d="M23.601 11.19a.722.722 0 0 0-1.036 0l-8.779 8.949-3.375-3.44c-.286-.292-.75-.292-1.036 0s-.286.765 0 1.056l3.893 3.968a.723.723 0 0 0 1.036 0l9.297-9.478a.757.757 0 0 0 0-1.056z" style="fill:var(--color19, #fff)"/>
    </symbol>
    <symbol id="icon-point-yellow" viewBox="0 0 33 32">
      <path fill="#f90" d="M12.667 1.333h6.726c6.259 0 11.333 5.074 11.333 11.333v6.667c0 6.259-5.074 11.333-11.333 11.333h-6.726c-6.259 0-11.333-5.074-11.333-11.333v-6.667c0-6.259 5.074-11.333 11.333-11.333z" style="fill:var(--color20, #f90)"/>
      <path fill="none" stroke="#fff" stroke-width="2.667" d="M12.667 1.333h6.726c6.259 0 11.333 5.074 11.333 11.333v6.667c0 6.259-5.074 11.333-11.333 11.333h-6.726c-6.259 0-11.333-5.074-11.333-11.333v-6.667c0-6.259 5.074-11.333 11.333-11.333z" style="stroke:var(--color19, #fff)"/>
      <path fill="none" stroke="#f90" stroke-width="2.667" d="M12.667 1.333h6.726c6.259 0 11.333 5.074 11.333 11.333v6.667c0 6.259-5.074 11.333-11.333 11.333h-6.726c-6.259 0-11.333-5.074-11.333-11.333v-6.667c0-6.259 5.074-11.333 11.333-11.333z" style="stroke:var(--color20, #f90)"/>
      <path fill="#fff" d="M23.601 11.19a.722.722 0 0 0-1.036 0l-8.779 8.949-3.375-3.44c-.286-.292-.75-.292-1.036 0s-.286.765 0 1.056l3.893 3.968a.723.723 0 0 0 1.036 0l9.297-9.478a.757.757 0 0 0 0-1.056z" style="fill:var(--color19, #fff)"/>
    </symbol>
    <symbol id="icon-business" viewBox="0 0 32 32">
      <path d="M17.996 4.024 8.668 6.895C5.269 7.941 3.819 10.576 4.66 14.18l2.305 9.881c.841 3.604 3.243 5.053 6.642 4.007l9.328-2.871c3.399-1.046 4.84-3.678 3.999-7.283l-2.305-9.881c-.841-3.604-3.234-5.056-6.633-4.01z" style="fill:var(--color21, #000)"/>
      <path fill="#e31313" d="m17.329 8.444-6.162 1.896c-2.245.691-3.218 2.366-2.69 4.632l1.449 6.212c.529 2.266 2.1 3.158 4.345 2.467l6.162-1.896c2.245-.691 3.212-2.364 2.684-4.63l-1.449-6.212c-.529-2.266-2.094-3.16-4.34-2.469z" opacity=".5" style="fill:var(--color22, #e31313)"/>
      <path fill="#f03e3d" stroke="#000" stroke-linecap="round" stroke-linejoin="round" stroke-width=".478" d="M24.15 8.977h-8.816c-1.789 0-3.297.691-4.355 1.902-1.056 1.209-1.649 2.919-1.649 4.939v9.112c0 2.014.593 3.722 1.649 4.929 1.058 1.21 2.566 1.901 4.355 1.901h8.816c1.789 0 3.295-.691 4.35-1.901 1.053-1.207 1.644-2.915 1.644-4.929v-9.112c0-2.02-.591-3.73-1.644-4.939-1.056-1.212-2.561-1.903-4.35-1.903z" style="fill:var(--color4, #f03e3d);stroke:var(--color21, #000)"/>
      <path d="M30.984 7.578c-.825 0-1.494.734-1.494 1.639s.669 1.639 1.494 1.639 1.494-.734 1.494-1.639c0-.435-.157-.851-.438-1.159s-.66-.48-1.056-.48zM25.057 18.394l-2.906 4.113a.706.706 0 0 1-1.073.147l-2.79-2.399-2.512 3.565c-.182.317-.536.459-.862.346s-.541-.452-.524-.826a.845.845 0 0 1 .161-.509l3.004-4.25a.706.706 0 0 1 1.064-.156l2.79 2.409 2.45-3.457c.118-.178.297-.297.495-.328s.401.027.56.161a.897.897 0 0 1 .143 1.165v.02z" style="fill:var(--color21, #000)"/>
    </symbol>
    <symbol id="icon-enterprise" viewBox="0 0 32 32">
      <path d="M16.507 3.263 7.416 5.862c-3.313.947-4.687 3.486-3.799 7.021l2.433 9.69c.888 3.534 3.268 5 6.58 4.053l9.091-2.599c3.313-.947 4.678-3.484 3.791-7.018l-2.433-9.69c-.888-3.534-3.259-5.003-6.572-4.056z" style="fill:var(--color21, #000)"/>
      <path fill="#11b5e4" d="m20.987 15.961-1.651-6.672c-.599-2.42-2.098-3.505-4.068-2.95l-6.674 1.88c-2.003.564-2.779 2.29-2.18 4.71l1.651 6.672c.608 2.459 2.072 3.512 4.074 2.948l6.674-1.88c1.971-.555 2.782-2.248 2.173-4.708z" opacity=".5" style="fill:var(--color5, #11b5e4)"/>
      <path fill="#00acdd" d="M24.411 7.834H15c-3.429 0-5.373 2.073-5.373 5.732v10.031c0 3.659 1.943 5.732 5.373 5.732h9.411c3.429 0 5.364-2.073 5.364-5.732V13.566c0-3.659-1.934-5.732-5.364-5.732z" style="fill:var(--color23, #00acdd)"/>
      <path d="M24.411 8.278a.444.444 0 0 0 0-.888v.889zm0-.889a.444.444 0 0 0 0 .888v-.889zm0 0H15v.889h9.411v-.889zm-9.411 0c-1.806 0-3.279.548-4.297 1.634-1.014 1.082-1.52 2.638-1.52 4.542h.889c0-1.754.465-3.065 1.28-3.934.811-.865 2.024-1.353 3.648-1.353v-.889zm-5.817 6.177v10.031h.889V13.566h-.889zm0 10.031c0 1.905.506 3.46 1.52 4.542 1.018 1.086 2.491 1.634 4.297 1.634v-.889c-1.624 0-2.837-.488-3.648-1.353-.815-.869-1.28-2.18-1.28-3.934h-.889zM15 29.774h9.411v-.889H15v.889zm9.411 0c1.806 0 3.277-.548 4.293-1.635 1.012-1.082 1.516-2.638 1.516-4.542h-.889c0 1.755-.463 3.066-1.276 3.935-.808.865-2.019 1.353-3.643 1.353v.889zm5.808-6.177V13.566h-.889v10.031h.889zm0-10.031c0-1.904-.504-3.46-1.516-4.542-1.016-1.087-2.487-1.635-4.293-1.635v.889c1.624 0 2.835.488 3.643 1.353.813.869 1.276 2.18 1.276 3.935h.889zM19.736 12.229c-.457 0-.833.401-.833.898v10.91c0 .487.376.889.833.889.466 0 .842-.401.842-.889v-10.91c0-.497-.376-.898-.842-.898zm-4.701 3.525c-.457 0-.833.401-.833.898v7.385c0 .487.376.889.833.889.466 0 .842-.401.842-.889v-7.385c0-.497-.376-.898-.842-.898zm8.498 4.796c0-.497.376-.898.842-.898.457 0 .833.401.833.898v3.487c0 .487-.376.889-.842.889-.457 0-.833-.401-.833-.889V20.55z" style="fill:var(--color21, #000)"/>
      <path d="M19.081 13.127c0-.411.308-.72.655-.72v-.356c-.567 0-1.011.493-1.011 1.076h.356zm0 10.91v-10.91h-.356v10.91h.356zm.655.711c-.348 0-.655-.311-.655-.711h-.356c0 .574.445 1.066 1.011 1.066v-.356zm.664-.711c0 .399-.306.711-.664.711v.356c.573 0 1.019-.491 1.019-1.066h-.356zm0-10.91v10.91h.356v-10.91H20.4zm-.664-.721c.357 0 .664.311.664.72h.356c0-.584-.445-1.076-1.019-1.076v.356zm-5.356 4.246c0-.411.308-.72.655-.72v-.356c-.567 0-1.011.493-1.011 1.076h.356zm0 7.385v-7.385h-.356v7.385h.356zm.655.711c-.348 0-.655-.311-.655-.711h-.356c0 .574.445 1.066 1.011 1.066v-.356zm.664-.711c0 .399-.306.711-.664.711v.356c.573 0 1.019-.491 1.019-1.066h-.356zm0-7.385v7.385h.356v-7.385h-.356zm-.664-.72c.357 0 .664.311.664.72h.356c0-.584-.445-1.076-1.019-1.076v.356zm9.34 3.542c-.575 0-1.02.492-1.02 1.076h.356c0-.41.307-.72.664-.72v-.356zm1.01 1.076c0-.583-.444-1.076-1.011-1.076v.356c.347 0 .655.309.655.72h.356zm0 3.487V20.55h-.356v3.487h.356zm-1.019 1.067c.573 0 1.02-.491 1.02-1.066h-.356c0 .399-.306.711-.664.711v.356zm-1.011-1.067c0 .574.445 1.066 1.011 1.066v-.356c-.348 0-.655-.311-.655-.711h-.356zm0-3.487v3.487h.356V20.55h-.356z" style="fill:var(--color21, #000)"/>
    </symbol>
    <symbol id="icon-heart-red" viewBox="0 0 32 32">
	  <path fill="#f03e3d" style="fill: var(--color1, #f03e3d)" d="M12.69 0h6.621c5.789 0 10.483 4.693 10.483 10.483v6.621c0 5.789-4.693 10.483-10.483 10.483h-6.621c-5.789 0-10.483-4.693-10.483-10.483v-6.621c0-5.789 4.693-10.483 10.483-10.483z"></path>
	  <path fill="#fff" style="fill: var(--color2, #fff)" d="M16 18.286c0.079 0 0.158-0.030 0.217-0.089l3.069-2.956c0.044-0.044 1.128-1.034 1.128-2.217 0-1.443-0.882-2.305-2.355-2.305-0.862 0-1.67 0.68-2.059 1.064-0.389-0.384-1.197-1.064-2.059-1.064-1.473 0-2.355 0.862-2.355 2.305 0 1.182 1.084 2.172 1.123 2.207l3.074 2.966c0.059 0.059 0.138 0.089 0.217 0.089z"></path>
	  <path fill="#000" style="fill: var(--color3, #000)" d="M16.217 18.197l-0.191-0.199-0.004 0.004 0.195 0.195zM19.286 15.241l0.191 0.199 0.004-0.004-0.195-0.195zM16 11.783l-0.194 0.196 0.194 0.191 0.194-0.191-0.194-0.196zM12.709 15.232l0.192-0.198-0.005-0.005-0.005-0.004-0.182 0.208zM15.783 18.197l0.195-0.195-0.004-0.003-0.192 0.198zM16 18.286v0.276c0.147 0 0.298-0.055 0.412-0.169l-0.39-0.39c-0.004 0.004-0.011 0.008-0.022 0.008v0.276zM16.217 18.197l0.191 0.199 3.069-2.956-0.383-0.397-3.069 2.956 0.191 0.199zM19.286 15.241l0.195 0.195c-0.001 0.001-0.001 0.001 0.003-0.003 0.003-0.003 0.008-0.007 0.013-0.013 0.011-0.011 0.026-0.025 0.044-0.043 0.036-0.036 0.085-0.086 0.143-0.149 0.114-0.125 0.262-0.299 0.41-0.513 0.29-0.421 0.596-1.020 0.596-1.692h-0.552c0 0.51-0.236 0.998-0.499 1.378-0.26 0.376-0.523 0.617-0.549 0.643l0.195 0.195zM20.414 13.025h0.276c0-0.778-0.239-1.432-0.708-1.891s-1.133-0.69-1.923-0.69v0.552c0.683 0 1.196 0.199 1.537 0.533s0.542 0.832 0.542 1.497h0.276zM18.059 10.719v-0.276c-0.501 0-0.969 0.196-1.35 0.428-0.383 0.233-0.7 0.515-0.903 0.715l0.388 0.393c0.186-0.184 0.468-0.434 0.802-0.637 0.336-0.204 0.703-0.348 1.064-0.348v-0.276zM16 11.783l0.194-0.196c-0.203-0.201-0.519-0.482-0.903-0.715-0.381-0.232-0.849-0.428-1.35-0.428v0.552c0.361 0 0.728 0.143 1.063 0.348 0.334 0.203 0.616 0.453 0.802 0.637l0.194-0.196zM13.941 10.719v-0.276c-0.79 0-1.455 0.232-1.923 0.69s-0.708 1.113-0.708 1.891h0.552c0-0.665 0.202-1.164 0.542-1.497s0.854-0.533 1.537-0.533v-0.276zM11.586 13.025h-0.276c0 0.672 0.306 1.271 0.596 1.691 0.292 0.423 0.59 0.696 0.622 0.724l0.363-0.415c0 0-0.017-0.015-0.048-0.046s-0.073-0.072-0.123-0.127c-0.1-0.109-0.231-0.263-0.36-0.45-0.262-0.379-0.498-0.867-0.498-1.377h-0.276zM12.709 15.232l-0.191 0.199 3.074 2.966 0.383-0.397-3.074-2.966-0.192 0.198zM15.783 18.197l-0.195 0.195c0.114 0.114 0.265 0.169 0.412 0.169v-0.552c-0.011 0-0.018-0.004-0.022-0.008l-0.195 0.195z"></path>
	</symbol>
    <symbol id="icon-mobile" viewBox="0 0 21 32">
      <path fill="#02897a" d="M16.935 2.286H3.636c-1.377 0-2.494 1.152-2.494 2.571v22.286c0 1.42 1.117 2.571 2.494 2.571h13.299c1.377 0 2.494-1.152 2.494-2.571V4.857c0-1.42-1.117-2.571-2.494-2.571zm-4.156 23.952c0 .52-.374.905-.831.905H8.577c-.41 0-.784-.386-.784-.857s.374-.857.831-.857h3.325c.457 0 .831.386.831.809zm3.325-3.381H4.468V5.714h11.636v17.143z" style="fill:var(--color1, #02897a)"/>
    </symbol>
    <symbol id="icon-twitter" viewBox="0 0 32 32">
      <path fill="none" stroke="#02897a" stroke-linecap="round" stroke-linejoin="round" stroke-width="2.667" d="M30.667 4.013a14.542 14.542 0 0 1-4.187 2.04 5.975 5.975 0 0 0-6.637-1.661A5.979 5.979 0 0 0 16 10.053v1.333a14.211 14.211 0 0 1-12-6.04s-5.333 12 6.667 17.333a15.519 15.519 0 0 1-9.333 2.667c12 6.667 26.667 0 26.667-15.333a5.966 5.966 0 0 0-.107-1.107 10.288 10.288 0 0 0 2.773-4.893v0z" style="stroke:var(--color1, #02897a)"/>
    </symbol>
    <symbol id="icon-facebook" viewBox="0 0 32 32">
      <path fill="none" stroke="#02897a" stroke-linecap="round" stroke-linejoin="round" stroke-width="2.667" d="M24 2.667h-4a6.67 6.67 0 0 0-6.667 6.667v4h-4v5.333h4v10.667h5.333V18.667h4l1.333-5.333h-5.333v-4A1.334 1.334 0 0 1 20 8h4V2.667z" style="stroke:var(--color1, #02897a)"/>
    </symbol>
    <symbol id="icon-instagram" viewBox="0 0 32 32">
      <path fill="none" stroke="#02897a" stroke-linecap="round" stroke-linejoin="round" stroke-width="2.667" d="M22.667 2.667H9.334a6.667 6.667 0 0 0-6.667 6.667v13.333a6.667 6.667 0 0 0 6.667 6.667h13.333a6.667 6.667 0 0 0 6.667-6.667V9.334a6.667 6.667 0 0 0-6.667-6.667z" style="stroke:var(--color1, #02897a)"/>
      <path fill="none" stroke="#02897a" stroke-linecap="round" stroke-linejoin="round" stroke-width="2.667" d="M21.333 15.16a5.338 5.338 0 0 1-6.123 6.049 5.334 5.334 0 1 1 6.124-6.048zM23.333 8.667h.013" style="stroke:var(--color1, #02897a)"/>
    </symbol>
    <symbol id="icon-clock" viewBox="0 0 32 32">
      <path fill="#f03e3d" d="M11.259 0h9.481c6.218 0 11.259 5.041 11.259 11.259v9.481c0 6.218-5.041 11.259-11.259 11.259h-9.481C5.041 31.999 0 26.958 0 20.74v-9.481C0 5.041 5.041 0 11.259 0z" style="fill:var(--color4, #f03e3d)"/>
      <path fill="#fff" d="M19.302 12.106h.508a.167.167 0 0 0 .169-.169v-.339a.167.167 0 0 0-.169-.169h-7.788a.167.167 0 0 0-.169.169v.339c0 .095.074.169.169.169h.508c0 1.958.936 3.376 1.973 4.063-1.037.688-1.973 2.106-1.973 4.064h-.508a.167.167 0 0 0-.169.169v.339c0 .095.074.169.169.169h7.788a.167.167 0 0 0 .169-.169v-.339a.167.167 0 0 0-.169-.169h-.508c0-1.958-.936-3.376-1.974-4.064 1.037-.688 1.974-2.106 1.974-4.063zm-.678 0c0 .772-.175 1.455-.45 2.032h-4.519a4.693 4.693 0 0 1-.45-2.032h5.418zm-.301 6.434h-4.815c.392-1.021 1.095-1.746 1.799-2.032h1.217c.704.286 1.407 1.011 1.799 2.032z" style="fill:var(--color19, #fff)"/>
    </symbol>
    <symbol id="icon-heart-purple" viewBox="0 0 31 32">
	  <path fill="#740a76" style="fill: var(--color3, #740a76)" d="M11.922 0.607h7.529c6.584 0 11.922 5.337 11.922 11.922v7.529c0 6.584-5.337 11.922-11.922 11.922h-7.529c-6.584 0-11.922-5.337-11.922-11.922v-7.529c0-6.584 5.337-11.922 11.922-11.922z"></path>
	  <path fill="#fff" style="fill: var(--color2, #fff)" d="M15.686 21.403c0.090 0 0.179-0.034 0.247-0.101l3.49-3.361c0.050-0.050 1.283-1.176 1.283-2.521 0-1.641-1.003-2.622-2.678-2.622-0.98 0-1.899 0.773-2.342 1.21-0.443-0.437-1.361-1.21-2.342-1.21-1.675 0-2.678 0.98-2.678 2.622 0 1.345 1.232 2.471 1.277 2.51l3.496 3.373c0.067 0.067 0.157 0.101 0.247 0.101z"></path>
	</symbol>
    <symbol id="icon-design" viewBox="0 0 32 32">
	  <path fill="#4d8dff" style="fill: var(--color4, #4d8dff)" d="M12.69 0h6.621c5.789 0 10.483 4.693 10.483 10.483v6.621c0 5.789-4.693 10.483-10.483 10.483h-6.621c-5.789 0-10.483-4.693-10.483-10.483v-6.621c0-5.789 4.693-10.483 10.483-10.483z"></path>
	  <path fill="#fff" style="fill: var(--color2, #fff)" d="M16.266 13.596l0.645 0.3 0.961-0.286v-0.67c0-1.138-0.961-2.049-2.108-2.049-1.143 0-2.108 0.906-2.108 2.034v3.054c0 0.281-0.227 0.502-0.502 0.502s-0.502-0.222-0.502-0.502v-1.291h-1.616c0 1.296 0 1.31 0 1.31 0 1.167 0.946 2.113 2.113 2.113 1.158 0 2.113-0.931 2.113-2.084v-3.015c0-0.276 0.227-0.502 0.502-0.502s0.502 0.227 0.502 0.502v0.581zM18.877 14.69v1.355c0 0.276-0.227 0.497-0.502 0.497s-0.502-0.222-0.502-0.497v-1.33l-0.961 0.286-0.645-0.3v1.32c0 1.158 0.951 2.094 2.113 2.094 1.168 0 2.113-0.946 2.113-2.113 0 0 0-0.015 0-1.31h-1.616z"></path>
	</symbol>
    <symbol id="icon-arrow" viewBox="0 0 32 32">
	  <path fill="#02897a" style="fill: var(--color1, #02897a)" d="M11.922 0.607h7.529c6.584 0 11.922 5.337 11.922 11.922v7.529c0 6.584-5.337 11.922-11.922 11.922h-7.529c-6.584 0-11.922-5.337-11.922-11.922v-7.529c0-6.584 5.337-11.922 11.922-11.922z"></path>
	  <path fill="#fff" style="fill: var(--color2, #fff)" d="M18.269 17.296l-5.737-5.737c-0.067-0.073-0.157-0.106-0.252-0.106-0.045 0-0.095 0.011-0.134 0.028-0.134 0.056-0.224 0.185-0.224 0.331v8.426c0 0.146 0.090 0.274 0.224 0.331 0.039 0.017 0.090 0.028 0.134 0.028 0.095 0 0.185-0.039 0.252-0.106l1.748-1.748 1.070 2.532c0.078 0.179 0.286 0.269 0.471 0.19l0.992-0.42c0.179-0.078 0.269-0.286 0.191-0.471l-1.126-2.667h2.14c0.146 0 0.274-0.090 0.331-0.224 0.056-0.129 0.028-0.286-0.078-0.387z"></path>
	</symbol>
    <symbol id="icon-video" viewBox="0 0 28 32">
      <path fill="#02897a" d="M26.088 12.891c2.441 1.354 2.441 4.864 0 6.218L4.933 30.848c-2.37 1.315-5.281-.399-5.281-3.109V4.262c0-2.71 2.911-4.424 5.281-3.109l21.155 11.739z" style="fill:var(--color1, #02897a)"/>
    </symbol>
    <symbol id="icon-stars" viewBox="0 0 188 32">
      <path fill="#f3cd03" d="M32.404 11.487c-.102-.296-.29-.556-.541-.749s-.553-.308-.869-.333l-9.261-.725L17.725.944c-.128-.281-.335-.52-.598-.688a1.638 1.638 0 0 0-1.764-.001 1.6 1.6 0 0 0-.599.687l-4.008 8.737-9.261.725c-.311.024-.609.136-.857.323s-.437.439-.543.728a1.577 1.577 0 0 0 .394 1.689l6.844 6.57-2.421 10.321c-.074.312-.05.639.068.938s.324.556.592.739a1.64 1.64 0 0 0 1.826.013l8.845-5.807 8.845 5.807a1.646 1.646 0 0 0 1.857-.04c.268-.193.47-.462.579-.771s.118-.644.028-.958l-2.971-10.238 7.369-6.53c.482-.429.66-1.097.452-1.704zM71.393 11.487c-.102-.296-.29-.556-.541-.749s-.553-.308-.87-.333l-9.261-.725L56.713.944c-.128-.281-.335-.52-.598-.688a1.638 1.638 0 0 0-1.764-.001 1.6 1.6 0 0 0-.599.687l-4.008 8.737-9.261.725c-.311.024-.609.136-.857.323s-.436.439-.543.728-.125.602-.055.902c.07.3.226.573.449.787l6.844 6.57L43.9 30.035c-.073.312-.05.639.068.938a1.616 1.616 0 0 0 1.502 1.022c.326.002.644-.092.915-.27l8.846-5.807 8.845 5.807a1.646 1.646 0 0 0 1.857-.04c.268-.193.47-.462.579-.771s.118-.644.028-.958l-2.971-10.238 7.369-6.53c.483-.429.66-1.097.452-1.704zM110.376 11.487c-.102-.296-.29-.556-.541-.749s-.553-.308-.87-.333l-9.261-.725L95.696.944c-.128-.281-.335-.52-.598-.688a1.638 1.638 0 0 0-1.764-.001 1.6 1.6 0 0 0-.599.687l-4.008 8.737-9.261.725c-.311.024-.609.136-.857.323s-.437.439-.543.728a1.577 1.577 0 0 0 .394 1.689l6.844 6.57-2.42 10.321c-.073.312-.05.639.068.938s.324.556.592.739a1.64 1.64 0 0 0 1.826.013l8.846-5.807 8.845 5.807a1.646 1.646 0 0 0 1.857-.04 1.583 1.583 0 0 0 .607-1.729l-2.971-10.238 7.369-6.53c.482-.429.66-1.097.452-1.704zM149.369 11.487c-.102-.296-.29-.556-.541-.749s-.553-.308-.869-.333l-9.261-.725L134.69.944c-.128-.281-.335-.52-.598-.688a1.638 1.638 0 0 0-1.764-.001 1.6 1.6 0 0 0-.599.687l-4.008 8.737-9.261.725c-.311.024-.609.136-.857.323s-.437.439-.543.728a1.577 1.577 0 0 0 .394 1.689l6.844 6.57-2.42 10.321c-.074.312-.05.639.068.938s.324.556.592.739a1.64 1.64 0 0 0 1.826.013l8.845-5.807 8.845 5.807a1.646 1.646 0 0 0 1.857-.04c.268-.193.47-.462.579-.771.109-.309.118-.644.028-.958l-2.971-10.238 7.369-6.53c.482-.429.66-1.097.452-1.704zM163.291 19.716l-2.42 10.321c-.075.313-.052.64.065.94s.323.558.591.74a1.635 1.635 0 0 0 1.828.01l8.845-5.807 8.846 5.807a1.644 1.644 0 0 0 1.858-.04c.268-.193.469-.462.578-.771s.119-.644.028-.958l-2.971-10.238 7.369-6.53a1.587 1.587 0 0 0-.088-2.451 1.632 1.632 0 0 0-.869-.332l-9.262-.726-4.008-8.736c-.128-.281-.335-.52-.598-.688a1.638 1.638 0 0 0-1.764 0 1.6 1.6 0 0 0-.598.688l-4.008 8.736-9.261.725c-.311.024-.609.136-.857.323s-.437.439-.543.728a1.586 1.586 0 0 0 .394 1.689l6.845 6.57zm4.634-6.92c.29-.023.568-.121.806-.286s.426-.39.545-.651l2.923-6.368 2.923 6.368a1.627 1.627 0 0 0 1.351.937l6.453.504-5.314 4.709a1.587 1.587 0 0 0-.476 1.628l2.035 7.014-6.069-3.985a1.634 1.634 0 0 0-1.802 0l-6.342 4.164 1.706-7.272a1.579 1.579 0 0 0-.448-1.504l-4.935-4.738 6.644-.521z" style="fill:var(--color25, #f3cd03)"/>
    </symbol>
	<symbol id="icon-clock-m" viewBox="0 0 26 32">
	  <path fill="#fff" style="fill: var(--color1, #fff)" d="M23.664 2.689h1.614c0.302 0 0.538-0.235 0.538-0.538v-1.076c0-0.303-0.235-0.538-0.538-0.538h-24.74c-0.303 0-0.538 0.235-0.538 0.538v1.076c0 0.303 0.235 0.538 0.538 0.538h1.613c0 6.219 2.975 10.723 6.269 12.908-3.294 2.185-6.269 6.689-6.269 12.908h-1.613c-0.303 0-0.538 0.235-0.538 0.538v1.076c0 0.302 0.235 0.538 0.538 0.538h24.74c0.302 0 0.538-0.235 0.538-0.538v-1.076c0-0.302-0.235-0.538-0.538-0.538h-1.614c0-6.219-2.975-10.723-6.269-12.908 3.294-2.185 6.269-6.689 6.269-12.908zM21.513 2.689c0 2.454-0.555 4.622-1.429 6.454h-14.353c-0.874-1.832-1.429-4-1.429-6.454h17.21zM20.555 23.126h-15.294c1.244-3.244 3.479-5.546 5.714-6.454h3.866c2.235 0.908 4.471 3.21 5.714 6.454z"></path>
	</symbol>
	<symbol id="icon-heart-m" viewBox="0 0 36 32">
	  <path fill="#fff" style="fill: var(--color1, #fff)" d="M18 30.286c0.286 0 0.571-0.107 0.786-0.322l11.125-10.714c0.161-0.161 4.089-3.75 4.089-8.036 0-5.232-3.196-8.357-8.536-8.357-3.125 0-6.053 2.464-7.464 3.857-1.411-1.393-4.339-3.857-7.464-3.857-5.339 0-8.536 3.125-8.536 8.357 0 4.286 3.929 7.875 4.071 8l11.143 10.75c0.214 0.214 0.5 0.322 0.786 0.322z"></path>
	  <path fill="#000" style="fill: var(--color2, #000)" d="M18.786 29.964l-0.694-0.72-0.013 0.013 0.707 0.707zM29.911 19.25l0.694 0.72 0.013-0.013-0.707-0.707zM18 6.714l-0.703 0.712 0.703 0.694 0.703-0.694-0.703-0.712zM6.071 19.214l0.694-0.72-0.018-0.017-0.018-0.016-0.659 0.753zM17.214 29.964l0.707-0.707-0.013-0.012-0.694 0.72zM18 30.286v1c0.533 0 1.079-0.2 1.493-0.614l-1.414-1.414c-0.014 0.014-0.040 0.029-0.079 0.029v1zM18.786 29.964l0.694 0.72 11.125-10.714-1.387-1.441-11.125 10.714 0.694 0.72zM29.911 19.25l0.707 0.707c-0.004 0.004-0.005 0.005 0.011-0.010 0.011-0.011 0.028-0.027 0.048-0.046 0.040-0.039 0.095-0.091 0.161-0.157 0.132-0.131 0.31-0.313 0.517-0.539 0.414-0.451 0.951-1.085 1.484-1.859 1.053-1.526 2.161-3.697 2.161-6.133h-2c0 1.85-0.856 3.617-1.808 4.997-0.941 1.364-1.894 2.237-1.989 2.332l0.707 0.707zM34 11.214h1c0-2.822-0.867-5.192-2.566-6.855-1.697-1.661-4.106-2.502-6.97-2.502v2c2.476 0 4.335 0.721 5.571 1.931 1.233 1.207 1.965 3.016 1.965 5.426h1zM25.464 2.857v-1c-1.817 0-3.514 0.712-4.895 1.552-1.389 0.845-2.536 1.867-3.272 2.594l1.405 1.423c0.674-0.666 1.697-1.573 2.906-2.308 1.218-0.741 2.548-1.261 3.855-1.261v-1zM18 6.714l0.703-0.712c-0.736-0.727-1.883-1.749-3.272-2.594-1.381-0.84-3.077-1.552-4.895-1.552v2c1.308 0 2.638 0.52 3.855 1.261 1.209 0.735 2.232 1.642 2.906 2.308l0.703-0.712zM10.536 2.857v-1c-2.863 0-5.273 0.841-6.97 2.502-1.7 1.663-2.566 4.033-2.566 6.855h2c0-2.41 0.732-4.219 1.965-5.426 1.236-1.21 3.095-1.931 5.571-1.931v-1zM2 11.214h-1c0 2.436 1.109 4.606 2.159 6.128 1.059 1.534 2.138 2.523 2.254 2.624l1.317-1.505c0 0-0.063-0.056-0.175-0.166-0.11-0.108-0.263-0.263-0.445-0.459-0.364-0.395-0.837-0.952-1.305-1.63-0.949-1.375-1.805-3.142-1.805-4.992h-1zM6.071 19.214l-0.694 0.72 11.143 10.75 1.389-1.439-11.143-10.75-0.694 0.72zM17.214 29.964l-0.707 0.707c0.414 0.414 0.96 0.614 1.493 0.614v-2c-0.038 0-0.064-0.014-0.079-0.029l-0.707 0.707z"></path>
	</symbol>
	<symbol id="icon-design-m" viewBox="0 0 41 32">
	  <path fill="#fff" style="fill: var(--color1, #fff)" d="M21.673 12.898l2.674 1.245 3.98-1.184v-2.775c0-4.714-3.98-8.49-8.735-8.49-4.735 0-8.735 3.755-8.735 8.429v12.653c0 1.163-0.939 2.082-2.082 2.082s-2.082-0.918-2.082-2.082v-5.347h-6.694c0 5.367 0 5.429 0 5.429 0 4.837 3.918 8.755 8.755 8.755 4.796 0 8.755-3.857 8.755-8.633v-12.49c0-1.143 0.939-2.082 2.082-2.082s2.082 0.939 2.082 2.082v2.408zM32.49 17.429v5.612c0 1.143-0.939 2.061-2.082 2.061s-2.082-0.918-2.082-2.061v-5.51l-3.98 1.184-2.674-1.245v5.469c0 4.796 3.939 8.674 8.755 8.674 4.837 0 8.755-3.918 8.755-8.755 0 0 0-0.061 0-5.429h-6.694z"></path>
	</symbol>
	<symbol id="icon-arrow-m" viewBox="0 0 21 32">
	  <path fill="#fff" style="fill: var(--color1, #fff)" d="M19.042 18.067l-17.21-17.21c-0.202-0.219-0.471-0.319-0.756-0.319-0.134 0-0.286 0.034-0.403 0.084-0.403 0.168-0.672 0.555-0.672 0.992v25.277c0 0.437 0.269 0.824 0.672 0.992 0.118 0.050 0.269 0.084 0.403 0.084 0.286 0 0.555-0.118 0.756-0.319l5.244-5.244 3.21 7.597c0.235 0.538 0.857 0.807 1.412 0.571l2.975-1.261c0.538-0.235 0.807-0.857 0.571-1.412l-3.378-8h6.42c0.437 0 0.824-0.269 0.992-0.672 0.168-0.387 0.084-0.857-0.235-1.16z"></path>
	</symbol>
  </defs>
</svg>
